<svg xmlns="http://www.w3.org/2000/svg" width="62" height="62" viewBox="0 0 62 62">
  <path id="cart-chaco" d="M20.1,52.6a6.2,6.2,0,1,0,6.2,6.2A6.192,6.192,0,0,0,20.1,52.6ZM1.5,3V9.2H7.7L18.86,32.729l-4.185,7.6A5.994,5.994,0,0,0,13.9,43.3a6.218,6.218,0,0,0,6.2,6.2H57.3V43.3H21.4a.767.767,0,0,1-.775-.775l.093-.372L23.51,37.1H46.6a6.171,6.171,0,0,0,5.425-3.193l11.1-20.119A3.029,3.029,0,0,0,63.5,12.3a3.109,3.109,0,0,0-3.1-3.1H14.551L11.637,3ZM51.1,52.6a6.2,6.2,0,1,0,6.2,6.2A6.192,6.192,0,0,0,51.1,52.6Z" transform="translate(-1.5 -3)" fill="#004c59"/>
</svg>